<?xml version="1.0" encoding="UTF-8"?>
<svg width="105px" height="105px" viewBox="0 0 105 105" version="1.1" xmlns="http://www.w3.org/2000/svg" xmlns:xlink="http://www.w3.org/1999/xlink">
    <!-- Generator: Sketch 52.2 (67145) - http://www.bohemiancoding.com/sketch -->
    <title>Logo-minified Copy</title>
    <desc>Created with Sketch.</desc>
    <defs>
        <rect id="path-1" x="0" y="0.124740125" width="102" height="56.0914761"></rect>
        <ellipse id="path-3" cx="50.7052023" cy="5.43866944" rx="48.9364162" ry="49.006237"></ellipse>
    </defs>
    <g id="Page-1" stroke="none" stroke-width="1" fill="none" fill-rule="evenodd">
        <g id="Login-Page" transform="translate(-309.000000, -902.000000)">
            <g id="Logo-minified-Copy" transform="translate(311.000000, 949.000000)">
                <g id="Combined-Shape" transform="translate(0.000000, 0.124740)"></g>
                <mask id="mask-2" fill="white">
                    <use xlink:href="#path-1"></use>
                </mask>
                <use id="Mask" fill="#D8D8D8" opacity="0" xlink:href="#path-1"></use>
                <path d="M75.2252606,76.8814969 L26.185144,76.8814969 C36.2723833,70.9264717 43.0404624,59.934582 43.0404624,47.3596674 C43.0404624,28.4464981 27.7301536,13.1143451 8.84393064,13.1143451 C5.78557163,13.1143451 2.82098476,13.5164042 -5.40012479e-13,14.2706212 L-5.40012479e-13,0.124740125 L102,0.124740125 L102,14.4339704 C99.0035214,13.5745925 95.8386694,13.1143451 92.566474,13.1143451 C73.680251,13.1143451 58.3699422,28.4464981 58.3699422,47.3596674 C58.3699422,59.934582 65.1380213,70.9264717 75.2252613,76.8814974 L75.2252606,76.8814969 Z M50.7052023,14.2952183 C52.9845741,14.2952183 54.8323699,12.444786 54.8323699,10.1621622 C54.8323699,7.87953829 52.9845741,6.02910603 50.7052023,6.02910603 C48.4258306,6.02910603 46.5780347,7.87953829 46.5780347,10.1621622 C46.5780347,12.444786 48.4258306,14.2952183 50.7052023,14.2952183 Z" id="Shape" fill="#FFFFFF" mask="url(#mask-2)"></path>
                <mask id="mask-4" fill="white">
                    <use xlink:href="#path-3"></use>
                </mask>
                <use id="Outer-circle" stroke="#FFFFFF" stroke-width="6.468" xlink:href="#path-3"></use>
            </g>
        </g>
    </g>
</svg>