<?xml version="1.0" standalone="no"?>
<!DOCTYPE svg PUBLIC "-//W3C//DTD SVG 20010904//EN"
 "http://www.w3.org/TR/2001/REC-SVG-20010904/DTD/svg10.dtd">
<svg version="1.0" xmlns="http://www.w3.org/2000/svg"
 width="600.000000pt" height="600.000000pt" viewBox="0 0 600.000000 600.000000"
 preserveAspectRatio="xMidYMid meet">
<metadata>
Created by potrace 1.15, written by Peter Selinger 2001-2017
</metadata>
<g transform="translate(0.000000,600.000000) scale(0.100000,-0.100000)"
fill="#000000" stroke="none">
<path d="M0 3000 l0 -3000 3000 0 3000 0 0 3000 0 3000 -3000 0 -3000 0 0
-3000z m2411 671 c20 -21 29 -39 29 -63 0 -18 11 -94 25 -168 14 -74 25 -136
25 -137 0 -2 30 -3 66 -3 60 0 68 -3 96 -30 25 -26 29 -36 24 -63 -3 -17 -18
-43 -31 -57 -21 -21 -25 -36 -25 -82 0 -50 2 -57 21 -60 12 -2 30 -14 41 -28
16 -22 20 -54 27 -205 5 -100 5 -189 1 -201 -11 -28 -39 -44 -79 -44 l-31 0 0
-72 c-1 -105 -25 -128 -135 -128 -60 0 -69 3 -96 29 -27 27 -29 35 -29 100 l0
71 -480 0 -480 0 0 -71 c0 -65 -2 -73 -29 -100 -27 -27 -35 -29 -101 -29 -66
0 -74 2 -101 29 -27 27 -29 35 -29 100 l0 71 -31 0 c-80 0 -88 27 -77 250 10
187 19 221 67 228 19 3 21 10 21 62 0 49 -4 63 -25 84 -34 34 -41 70 -21 102
22 32 54 44 121 44 48 0 55 3 60 23 19 89 47 246 46 265 -1 37 26 92 51 102
13 5 248 9 536 9 l514 1 29 -29z"/>
<path d="M1340 3546 c-6 -8 -25 -90 -41 -182 -23 -128 -27 -169 -18 -175 7 -4
56 -11 108 -15 92 -7 103 -5 273 37 116 29 178 49 178 57 0 7 -10 26 -21 41
-28 38 -18 56 21 36 18 -9 31 -11 35 -5 8 12 45 13 45 1 0 -4 -9 -20 -20 -34
-11 -14 -20 -31 -20 -39 0 -19 328 -99 400 -98 66 2 157 14 166 23 10 9 -46
319 -62 345 l-14 22 -509 0 c-431 0 -510 -2 -521 -14z"/>
<path d="M1243 2986 c-33 -15 -63 -60 -63 -96 0 -72 84 -125 152 -97 49 21 73
52 73 98 0 75 -89 127 -162 95z"/>
<path d="M2380 2982 c-47 -23 -75 -78 -60 -118 16 -41 38 -63 76 -73 73 -20
144 29 144 101 0 43 -24 76 -66 94 -43 18 -52 18 -94 -4z"/>
<path d="M1560 2955 c0 -13 41 -15 305 -15 264 0 305 2 305 15 0 13 -41 15
-305 15 -264 0 -305 -2 -305 -15z"/>
<path d="M1560 2885 c0 -13 41 -15 305 -15 264 0 305 2 305 15 0 13 -41 15
-305 15 -264 0 -305 -2 -305 -15z"/>
<path d="M1560 2805 c0 -13 41 -15 305 -15 264 0 305 2 305 15 0 13 -41 15
-305 15 -264 0 -305 -2 -305 -15z"/>
<path d="M1170 2473 c0 -80 5 -85 81 -81 l64 3 3 68 3 67 -76 0 -75 0 0 -57z"/>
<path d="M2402 2463 l3 -68 64 -3 c76 -4 81 1 81 81 l0 57 -75 0 -76 0 3 -67z"/>
</g>
</svg>
