<?xml version="1.0" encoding="UTF-8"?>
<svg width="266px" height="213px" viewBox="0 0 266 213" version="1.1" xmlns="http://www.w3.org/2000/svg" xmlns:xlink="http://www.w3.org/1999/xlink">
    <!-- Generator: Sketch 52.2 (67145) - http://www.bohemiancoding.com/sketch -->
    <title>Artboard</title>
    <desc>Created with Sketch.</desc>
    <g id="Artboard" stroke="none" stroke-width="1" fill="none" fill-rule="evenodd">
        <path d="M248,182 L248,197 C248,205.836556 240.836556,213 232,213 L223,213 C214.163444,213 207,205.836556 207,197 L207,182 L59,182 L59,197 C59,205.836556 51.836556,213 43,213 L34,213 C25.163444,213 18,205.836556 18,197 L18,182 L10,182 C4.4771525,182 0.179579254,177.522847 0.40110149,172 L2.60715969,117 C2.82868192,111.477153 7.38414718,107 12.7820761,107 L16,107 L16,88.717624 C10.1029496,86.4419919 6,81.3796807 6,75.5 C6,67.4918711 13.6111593,61 23,61 C26.1464249,61 29.0932019,61.7290892 31.6207757,63 L35.0711136,62.1975978 L41.702697,23.6041422 C41.8351118,22.272707 42.6103629,21.1477024 43.7023594,20.5243974 C42.6227905,18.7724002 42,16.7089304 42,14.5 L42,11.5 C42,5.14872538 47.1487254,0 53.5,0 L211.5,0 C217.851275,0 223,5.14872538 223,11.5 L223,14.5 C223,16.4961868 222.491395,18.3735826 221.596703,20.0096702 C223.526977,20.1435177 225.10315,21.6519295 225.297303,23.6041422 L231.241106,63 L234.379224,63 C236.906798,61.7290892 239.853575,61 243,61 C252.388841,61 260,67.4918711 260,75.5 C260,81.0412568 256.355774,85.8565288 251,88.2973566 L251,107 L253.217924,107 C258.615853,107 263.171318,111.477153 263.39284,117 L265.598899,172 C265.820421,177.522847 261.522847,182 256,182 L248,182 Z M239,182 L216,182 L216,197 C216,200.865993 219.134007,204 223,204 L232,204 C235.865993,204 239,200.865993 239,197 L239,182 Z M50,182 L27,182 L27,197 C27,200.865993 30.1340068,204 34,204 L43,204 C46.8659932,204 50,200.865993 50,197 L50,182 Z M130.110421,70.8092677 C130.03847,70.5518237 130,70.2804044 130,70 L130,63.4459997 C129.400982,63.3483309 128.825891,63.0685316 128.363961,62.6066017 L124.12132,58.363961 C122.949747,57.1923882 122.949747,55.2928932 124.12132,54.1213203 C125.292893,52.9497475 127.192388,52.9497475 128.363961,54.1213203 L132.606602,58.363961 C132.699802,58.4571618 132.785589,58.5549691 132.863961,58.6566502 C132.942333,58.5549691 133.02812,58.4571618 133.12132,58.363961 L137.363961,54.1213203 C138.535534,52.9497475 140.435029,52.9497475 141.606602,54.1213203 C142.778175,55.2928932 142.778175,57.1923882 141.606602,58.363961 L137.363961,62.6066017 C136.972479,62.9980839 136.499719,63.2587519 136,63.3886058 L136,70 C136,70.2909289 135.958588,70.5721855 135.881337,70.8381965 C149.913845,72.3089142 176.953137,82.7688022 189.049483,82.7688022 C202.060542,82.7688022 225.241429,84.9705627 224.498207,80 L217.212078,31 C216.468857,26.0294373 211.864272,22 206.927451,22 L58.9389054,22 C54.0020843,22 49.3974999,26.0294373 48.6542783,31 L41.3275715,80 C40.5843499,84.9705627 69.965717,83.9085337 79.2433878,82.7688022 C87.8978278,81.7056325 115.98176,72.0955866 130.110421,70.8092677 Z M45,142 C53.836556,142 61,134.836556 61,126 C61,117.163444 53.836556,110 45,110 C36.163444,110 29,117.163444 29,126 C29,134.836556 36.163444,142 45,142 Z M221,142 C229.836556,142 237,134.836556 237,126 C237,117.163444 229.836556,110 221,110 C212.163444,110 205,117.163444 205,126 C205,134.836556 212.163444,142 221,142 Z M89.5,113 C88.1192881,113 87,114.119288 87,115.5 C87,116.880712 88.1192881,118 89.5,118 L178.5,118 C179.880712,118 181,116.880712 181,115.5 C181,114.119288 179.880712,113 178.5,113 L89.5,113 Z M89.5,125 C88.1192881,125 87,126.119288 87,127.5 C87,128.880712 88.1192881,130 89.5,130 L178.5,130 C179.880712,130 181,128.880712 181,127.5 C181,126.119288 179.880712,125 178.5,125 L89.5,125 Z M89.5,136 C88.1192881,136 87,137.119288 87,138.5 C87,139.880712 88.1192881,141 89.5,141 L178.5,141 C179.880712,141 181,139.880712 181,138.5 C181,137.119288 179.880712,136 178.5,136 L89.5,136 Z" id="Combined-Shape" fill="#FFAF06"></path>
    </g>
</svg>